<svg width="8" height="5" viewBox="0 0 8 5" fill="none" xmlns="http://www.w3.org/2000/svg">
<path d="M6.98947 0.202086C7.10376 0.0847461 7.25413 0.0195572 7.41053 0.0260761C7.56692 0.0260761 7.71128 0.0912649 7.82556 0.215124C7.93383 0.332464 8 0.495437 8 0.664929C8 0.83442 7.94586 0.997393 7.83759 1.12125L4.43308 4.81095C4.37895 4.86962 4.31278 4.91525 4.2406 4.94785C4.16842 4.98044 4.09023 5 4.01203 5C3.93383 5 3.85564 4.98044 3.77744 4.94785C3.70526 4.91525 3.6391 4.86962 3.58496 4.81095L0.180451 1.12125C0.126316 1.06258 0.0781953 0.990874 0.0481201 0.912647C0.0180449 0.827901 -1.86073e-07 0.743156 -1.89777e-07 0.65841C-1.93481e-07 0.573664 0.0120299 0.482399 0.0421051 0.404172C0.0721802 0.325945 0.120301 0.254238 0.174436 0.189049C0.228571 0.130379 0.300752 0.0847464 0.372932 0.0521517C0.445113 0.0130381 0.523308 4.59548e-07 0.607519 4.56766e-07C0.685714 4.54182e-07 0.763909 0.019557 0.83609 0.0521517C0.90827 0.0847463 0.974436 0.136898 1.03459 0.202086L4.01203 3.42894L4.57143 2.81617L6.98947 0.202086Z" fill="#939597"/>
</svg>
