<svg width="6" height="8" viewBox="0 0 6 8" fill="none" xmlns="http://www.w3.org/2000/svg">
<path d="M5.29791 6.98947C5.41525 7.10376 5.48044 7.25413 5.47392 7.41053C5.47392 7.56692 5.40873 7.71128 5.28488 7.82556C5.16754 7.93383 5.00456 8 4.83507 8C4.66558 8 4.50261 7.94586 4.37875 7.83759L0.689048 4.43308C0.630378 4.37895 0.584746 4.31278 0.552151 4.2406C0.519557 4.16842 0.5 4.09023 0.5 4.01203C0.5 3.93383 0.519557 3.85564 0.552151 3.77744C0.584746 3.70526 0.630378 3.6391 0.689048 3.58496L4.37875 0.180451C4.43742 0.126316 4.50913 0.0781955 4.58735 0.0481203C4.6721 0.0180451 4.75684 0 4.84159 0C4.92634 0 5.0176 0.0120301 5.09583 0.0421053C5.17405 0.0721804 5.24576 0.120301 5.31095 0.174436C5.36962 0.228571 5.41525 0.300752 5.44785 0.372932C5.48696 0.445113 5.5 0.523308 5.5 0.607519C5.5 0.685714 5.48044 0.76391 5.44785 0.83609C5.41525 0.908271 5.3631 0.974436 5.29791 1.03459L2.07106 4.01203L2.68383 4.57143L5.29791 6.98947Z" fill="#EA1D25"/>
</svg>
