<svg width="16" height="11" viewBox="0 0 16 11" fill="none" xmlns="http://www.w3.org/2000/svg">
<path d="M14.6798 0.000318255C14.3952 0.00797036 14.1248 0.125967 13.9256 0.329362L5.82797 8.42694L1.769 5.28664L1.76915 5.28679C1.45923 5.04667 1.0448 4.99019 0.682081 5.13849C0.319215 5.28679 0.0630097 5.61754 0.0100784 6.0058C-0.0428763 6.39423 0.115373 6.78144 0.4253 7.02141L5.25219 10.7512C5.46293 10.9148 5.72618 10.9961 5.99233 10.9796C6.25862 10.9632 6.50977 10.8504 6.69892 10.6622L15.4751 1.886C15.6886 1.6797 15.8093 1.39548 15.8096 1.09858C15.8101 0.801673 15.6901 0.517313 15.4772 0.310407C15.2642 0.103337 14.9765 -0.00838309 14.6797 0.000491027L14.6798 0.000318255Z" fill="white"/>
</svg>
