<svg width="22" height="20" viewBox="0 0 22 20" fill="none" xmlns="http://www.w3.org/2000/svg">
<path fill-rule="evenodd" clip-rule="evenodd" d="M18.0877 12.2044C20.245 12.2044 22 13.9506 22 16.0965C22 18.2425 20.245 19.9887 18.0877 19.9887C15.9292 19.9887 14.173 18.2425 14.173 16.0965C14.173 13.9506 15.9292 12.2044 18.0877 12.2044ZM18.0877 14.0901C16.9689 14.0901 16.0587 14.9903 16.0587 16.0965C16.0587 17.2041 16.9689 18.103 18.0877 18.103C19.2054 18.103 20.1143 17.2041 20.1143 16.0965C20.1143 14.9903 19.2054 14.0901 18.0877 14.0901ZM8.901 15.2025C9.42146 15.2025 9.84386 15.6249 9.84386 16.1453C9.84386 16.6658 9.42146 17.0882 8.901 17.0882H0.979697C0.459237 17.0882 0.0368345 16.6658 0.0368345 16.1453C0.0368345 15.6249 0.459237 15.2025 0.979697 15.2025H8.901ZM3.91351 0C6.07203 0 7.82702 1.74744 7.82702 3.89339C7.82702 6.03935 6.07203 7.78427 3.91351 7.78427C1.75624 7.78427 0 6.03935 0 3.89339C0 1.74744 1.75624 0 3.91351 0ZM3.91351 1.88572C2.7959 1.88572 1.88572 2.78584 1.88572 3.89339C1.88572 4.99969 2.7959 5.89855 3.91351 5.89855C5.03237 5.89855 5.94129 4.99969 5.94129 3.89339C5.94129 2.78584 5.03237 1.88572 3.91351 1.88572ZM20.3546 3.01766C20.8751 3.01766 21.2975 3.44006 21.2975 3.96053C21.2975 4.48099 20.8751 4.90339 20.3546 4.90339H12.4346C11.9141 4.90339 11.4917 4.48099 11.4917 3.96053C11.4917 3.44006 11.9141 3.01766 12.4346 3.01766H20.3546Z" fill="#787486"/>
</svg>
