<svg width="22" height="24" viewBox="0 0 22 24" fill="none" xmlns="http://www.w3.org/2000/svg">
<path d="M22 11C22 17.0751 17.0751 22 11 22C4.92487 22 0 17.0751 0 11C0 4.92487 4.92487 0 11 0C17.0751 0 22 4.92487 22 11ZM1.64375 11C1.64375 16.1673 5.83269 20.3563 11 20.3563C16.1673 20.3563 20.3563 16.1673 20.3563 11C20.3563 5.83269 16.1673 1.64375 11 1.64375C5.83269 1.64375 1.64375 5.83269 1.64375 11Z" fill="#787486"/>
<path d="M10.431 12.465V11.932C10.431 11.698 10.457 11.49 10.509 11.308C10.561 11.126 10.6563 10.9527 10.795 10.788C10.9337 10.6233 11.0333 10.5107 11.094 10.45C11.1633 10.3807 11.2933 10.2637 11.484 10.099C11.4927 10.0903 11.5317 10.0557 11.601 9.995C11.679 9.93433 11.7267 9.89533 11.744 9.878C11.7613 9.86067 11.8003 9.826 11.861 9.774C11.9303 9.71333 11.9737 9.67433 11.991 9.657C12.0083 9.631 12.0387 9.58767 12.082 9.527C12.134 9.46633 12.1687 9.41867 12.186 9.384C12.2033 9.34933 12.2293 9.306 12.264 9.254C12.2987 9.19333 12.3203 9.137 12.329 9.085C12.3463 9.033 12.3593 8.97667 12.368 8.916C12.3767 8.84667 12.381 8.77733 12.381 8.708C12.381 8.37 12.2727 8.09267 12.056 7.876C11.848 7.65067 11.5793 7.538 11.25 7.538C10.912 7.538 10.6303 7.65933 10.405 7.902C10.1797 8.136 10.067 8.422 10.067 8.76V9.137L8.663 9.072V8.76C8.663 8.04067 8.91 7.447 9.404 6.979C9.898 6.50233 10.5263 6.264 11.289 6.264C12.0257 6.264 12.628 6.48933 13.096 6.94C13.564 7.382 13.798 7.94967 13.798 8.643C13.798 8.981 13.733 9.293 13.603 9.579C13.4817 9.85633 13.3647 10.0557 13.252 10.177C13.1393 10.2983 12.9703 10.4543 12.745 10.645C12.7277 10.6623 12.654 10.7273 12.524 10.84C12.4027 10.944 12.3247 11.0133 12.29 11.048C12.264 11.074 12.2077 11.1347 12.121 11.23C12.0343 11.3253 11.978 11.4033 11.952 11.464C11.926 11.5247 11.8957 11.607 11.861 11.711C11.835 11.8063 11.822 11.906 11.822 12.01V12.465H10.431ZM11.159 15.078C10.8903 15.078 10.665 14.987 10.483 14.805C10.3097 14.623 10.223 14.402 10.223 14.142C10.223 13.8907 10.3097 13.6783 10.483 13.505C10.665 13.323 10.8903 13.232 11.159 13.232C11.4103 13.232 11.627 13.323 11.809 13.505C11.991 13.6783 12.082 13.8907 12.082 14.142C12.082 14.402 11.991 14.623 11.809 14.805C11.627 14.987 11.4103 15.078 11.159 15.078Z" fill="#787486"/>
</svg>
