<svg width="46" height="45" viewBox="0 0 46 45" fill="none" xmlns="http://www.w3.org/2000/svg">
<path fill-rule="evenodd" clip-rule="evenodd" d="M16.9911 43.9544H11.431C9.38365 43.9625 7.71807 42.3473 7.70936 40.3469C7.7089 40.2331 7.71394 40.1194 7.72402 40.006C8.34415 34.4326 10.293 29.0791 13.4138 24.3755C16.2591 19.9994 20.0559 16.2893 24.5339 13.5086C29.3688 10.4476 34.8734 8.54258 40.6021 7.94819C42.6408 7.76813 44.4429 9.2373 44.6272 11.2296C44.6368 11.3371 44.6419 11.4446 44.6423 11.5526V16.9863C44.6602 18.8043 43.2971 20.3541 41.4546 20.6081C39.6749 20.8379 37.9282 21.263 36.247 21.8762C34.8922 22.3738 33.3655 22.0553 32.3361 21.061L29.9825 18.7609C25.3428 21.3391 21.5011 25.0935 18.8629 29.6283L21.2164 31.9283C22.2335 32.9339 22.5594 34.4263 22.0501 35.7499C21.4231 37.3929 20.9877 39.1003 20.7531 40.8392C20.4904 42.6604 18.8721 44.0001 16.9911 43.9544Z" stroke="#908F9D" stroke-width="2" stroke-linecap="round" stroke-linejoin="round"/>
<path fill-rule="evenodd" clip-rule="evenodd" d="M24.5299 12.4874C24.5299 18.8317 19.2673 23.9747 12.7755 23.9747C6.28362 23.9747 1.02104 18.8317 1.02104 12.4874C1.02104 6.1431 6.28362 1.00012 12.7755 1.00012C19.2673 1.00012 24.5299 6.1431 24.5299 12.4874" fill="#F4F4F6"/>
<path fill-rule="evenodd" clip-rule="evenodd" d="M24.5299 12.4874C24.5299 18.8317 19.2673 23.9747 12.7755 23.9747C6.28362 23.9747 1.02104 18.8317 1.02104 12.4874C1.02104 6.1431 6.28362 1.00012 12.7755 1.00012C19.2673 1.00012 24.5299 6.1431 24.5299 12.4874Z" stroke="#908F9D" stroke-width="2" stroke-linecap="round" stroke-linejoin="round"/>
<path d="M10.168 9.11096V15.8638" stroke="#908F9D" stroke-width="4" stroke-linecap="round" stroke-linejoin="round"/>
<path d="M15.3829 9.11096V15.8638" stroke="#908F9D" stroke-width="4" stroke-linecap="round" stroke-linejoin="round"/>
</svg>
