<svg width="40" height="27" viewBox="0 0 40 27" fill="none" xmlns="http://www.w3.org/2000/svg">
<path d="M0 7.62593C0 6.96508 0 4.46899 0 3.88178C0.525188 3.7752 19.6374 0.00585938 19.6742 0.00585938C19.6742 7.82748 19.6697 15.651 19.6606 23.4765C19.6606 24.3932 19.6916 25.3137 19.6916 26.2323C19.1374 26.1257 1.59107 22.682 0.00775351 22.3699C0.00775351 22.3041 0.00775351 14.8797 0.00775351 11.2325C0.00775351 11.1685 0.00775351 11.1046 0.00775351 11.0387L15.2634 10.3643V5.84494L0 7.62593ZM15.2498 15.1433L3.14532 14.7557V18.9921L15.2498 20.4087V15.1433Z" fill="#B52125"/>
<path d="M19.6196 0C20.1099 0.0930222 37.6679 3.54647 39.3403 3.87593C39.3403 3.90112 39.3403 22.3098 39.3403 22.3621C38.8733 22.4552 19.7049 26.2226 19.6409 26.2381C19.6371 26.1625 19.6196 8.67044 19.6196 0ZM23.6661 20.43L36.4818 18.9339V7.20922L23.6661 5.68598V20.43Z" fill="#EA1D25"/>
</svg>
