<svg width="18" height="18" viewBox="0 0 18 18" fill="none" xmlns="http://www.w3.org/2000/svg">
<path d="M12.8076 11H12.0275L11.751 10.73C12.7187 9.59 13.3013 8.11 13.3013 6.5C13.3013 2.91 10.4278 0 6.88294 0C3.33804 0 0.4646 2.91 0.4646 6.5C0.4646 10.09 3.33804 13 6.88294 13C8.47272 13 9.93412 12.41 11.0598 11.43L11.3264 11.71V12.5L16.2636 17.49L17.7349 16L12.8076 11V11ZM6.88294 11C4.42422 11 2.43947 8.99 2.43947 6.5C2.43947 4.01 4.42422 2 6.88294 2C9.34166 2 11.3264 4.01 11.3264 6.5C11.3264 8.99 9.34166 11 6.88294 11Z" fill="#939597"/>
</svg>
