<svg width="158" height="173" viewBox="0 0 158 173" fill="none" xmlns="http://www.w3.org/2000/svg">
<path fill-rule="evenodd" clip-rule="evenodd" d="M80.3533 0.551971C123.106 0.551971 157.764 35.2097 157.764 77.9623C157.764 120.715 123.106 155.373 80.3533 155.373C37.6007 155.373 2.943 120.715 2.943 77.9623C2.943 35.2097 37.6007 0.551971 80.3533 0.551971Z" fill="#F3F3F3"/>
<mask id="mask0_4_177" style="mask-type:alpha" maskUnits="userSpaceOnUse" x="2" y="0" width="156" height="156">
<path fill-rule="evenodd" clip-rule="evenodd" d="M80.3533 0.551971C123.106 0.551971 157.764 35.2097 157.764 77.9623C157.764 120.715 123.106 155.373 80.3533 155.373C37.6007 155.373 2.943 120.715 2.943 77.9623C2.943 35.2097 37.6007 0.551971 80.3533 0.551971Z" fill="white"/>
</mask>
<g mask="url(#mask0_4_177)">
<path d="M133.746 141.258L96.0034 123.305H78.4323H75.7364H58.1771L20.4343 141.258C20.4343 141.258 -1.57442 149.334 0.226836 172.822H75.7483H78.4442H153.966C156.161 149.549 133.746 141.258 133.746 141.258Z" fill="#202020" stroke="#202020" stroke-width="1.1434" stroke-miterlimit="10" stroke-linejoin="round"/>
<path d="M96.3375 123.305V83.1053H58.1771V123.317L48.7414 127.803C48.7414 127.803 49.481 145.648 77.6688 146.03C105.845 146.412 108.684 129.33 108.684 129.33L96.3375 123.305Z" fill="#F5F5F3" stroke="#202020" stroke-width="1.1434" stroke-miterlimit="10" stroke-linejoin="round"/>
<path d="M48.7295 70.5442C48.7295 70.5442 49.2663 61.7765 42.3356 57.7446C36.5143 54.3687 35.4765 48.0465 38.2321 43.3226C38.8524 42.249 39.6874 41.3067 40.6656 40.5313C41.2382 40.078 42.0851 39.0521 41.4887 37.2151C40.6417 34.5788 41.2382 31.9902 42.4788 30.69C43.8625 29.2466 45.0912 27.5408 49.5049 28.1492C54.837 28.8768 53.3101 23.0198 53.2386 18.6657C53.1312 12.3673 64.1892 7.65542 75.5097 18.3437C75.5097 18.3437 77.3468 20.9799 83.2992 19.3099C89.2398 17.6399 101.359 13.8942 109.984 21.1111C118.621 28.3281 110.127 35.9625 113.097 41.7838C116.068 47.617 118.764 53.0208 112.251 58.019C105.737 63.0171 105.821 73.7173 105.821 73.7173L48.7295 70.5442Z" fill="#202020"/>
<path d="M104.437 69.3991C104.437 69.3991 107.014 65.3075 112.322 67.3234C117.63 69.3394 115.233 82.2226 107.264 83.8687C107.264 83.8687 104.413 84.489 102.171 82.5327C102.183 82.5327 104.139 73.0135 104.437 69.3991Z" fill="#F5F5F3" stroke="#202020" stroke-width="1.1434" stroke-miterlimit="10" stroke-linejoin="round"/>
<path d="M111.272 71.8683C111.272 71.8683 106.823 70.3891 103.674 76.9261" stroke="#202020" stroke-width="0.6108" stroke-miterlimit="10" stroke-linecap="round" stroke-linejoin="round"/>
<path d="M105.833 73.7292C105.833 73.7292 110.664 76.3178 107.479 80.2066" stroke="#202020" stroke-width="0.6108" stroke-miterlimit="10" stroke-linecap="round" stroke-linejoin="round"/>
<path d="M50.1252 69.3991C50.1252 69.3991 47.5485 65.3075 42.2402 67.3234C36.9319 69.3394 39.3296 82.2226 47.298 83.8687C47.298 83.8687 50.149 84.489 52.3916 82.5327C52.3797 82.5327 50.4234 73.0135 50.1252 69.3991Z" fill="#F5F5F3" stroke="#202020" stroke-width="1.1434" stroke-miterlimit="10" stroke-linejoin="round"/>
<path d="M43.2899 71.8683C43.2899 71.8683 47.7394 70.3891 50.8886 76.9261" stroke="#202020" stroke-width="0.6108" stroke-miterlimit="10" stroke-linecap="round" stroke-linejoin="round"/>
<path d="M48.7295 73.7292C48.7295 73.7292 43.8983 76.3178 47.0833 80.2066" stroke="#202020" stroke-width="0.6108" stroke-miterlimit="10" stroke-linecap="round" stroke-linejoin="round"/>
<path d="M104.974 57.172C104.974 64.9377 104.21 81.1967 99.439 90.8471C94.9537 99.9011 87.534 104.78 77.812 105.066C68.09 105.353 60.8372 101.607 55.0398 89.857C49.2424 78.1071 49.5168 57.3152 49.5168 57.3152C49.5168 57.3152 49.5168 29.5568 76.9531 29.5568C105.833 29.5568 104.974 57.172 104.974 57.172Z" fill="#F5F5F3" stroke="#202020" stroke-width="1.1434" stroke-miterlimit="10" stroke-linejoin="round"/>
<path d="M75.2831 60.19V77.8685C75.2831 78.1429 75.3308 78.4053 75.4381 78.6558C75.8199 79.6101 76.9173 80.0634 77.9074 79.801L80.0427 79.2403" fill="#F5F5F3"/>
<path d="M75.2831 60.19V77.8685C75.2831 78.1429 75.3308 78.4053 75.4381 78.6558C75.8199 79.6101 76.9173 80.0634 77.9074 79.801L80.0427 79.2403" stroke="#202020" stroke-width="0.8224" stroke-miterlimit="10" stroke-linecap="round" stroke-linejoin="round"/>
<path d="M64.3085 69.4945C65.4812 69.4945 66.4319 68.5439 66.4319 67.3712C66.4319 66.1985 65.4812 65.2479 64.3085 65.2479C63.1359 65.2479 62.1852 66.1985 62.1852 67.3712C62.1852 68.5439 63.1359 69.4945 64.3085 69.4945Z" fill="#202020"/>
<path d="M88.6672 69.4945C89.8399 69.4945 90.7906 68.5439 90.7906 67.3712C90.7906 66.1985 89.8399 65.2479 88.6672 65.2479C87.4945 65.2479 86.5439 66.1985 86.5439 67.3712C86.5439 68.5439 87.4945 69.4945 88.6672 69.4945Z" fill="#202020"/>
<path d="M68.1496 69.6973L62.8771 73.1686" stroke="#202020" stroke-width="0.4746" stroke-miterlimit="10" stroke-linecap="round" stroke-linejoin="round"/>
<path d="M85.3391 69.6734L90.0032 73.1925" stroke="#202020" stroke-width="0.4746" stroke-miterlimit="10" stroke-linecap="round" stroke-linejoin="round"/>
<path d="M67.911 82.5924C67.911 82.5924 70.3922 84.489 76.9054 84.489C82.834 84.489 86.532 82.5924 86.532 82.5924" fill="#F5F5F3"/>
<path d="M67.911 82.5924C67.911 82.5924 70.3922 84.489 76.9054 84.489C82.834 84.489 86.532 82.5924 86.532 82.5924" stroke="#202020" stroke-width="0.8224" stroke-miterlimit="10" stroke-linecap="round" stroke-linejoin="round"/>
<path d="M73.3983 88.2228C73.3983 88.2228 78.8975 88.02 81.2236 87.018" stroke="#202020" stroke-width="0.4746" stroke-miterlimit="10" stroke-linecap="round" stroke-linejoin="round"/>
<path d="M81.9513 58.2933L98.7471 62.6354C98.7471 62.6354 97.9836 57.9235 91.1126 56.2177C84.2416 54.5 81.9513 58.2933 81.9513 58.2933Z" fill="#202020"/>
<path d="M71.9668 58.2933L55.1711 62.6354C55.1711 62.6354 55.9345 57.9235 62.8055 56.2177C69.6765 54.5 71.9668 58.2933 71.9668 58.2933Z" fill="#202020"/>
<path d="M66.5628 79.1399C71.7802 76.9654 74.2468 70.973 72.0723 65.7557C69.8977 60.5383 63.9054 58.0717 58.6881 60.2462C53.4707 62.4208 51.004 68.4131 53.1786 73.6304C55.3531 78.8478 61.3455 81.3145 66.5628 79.1399Z" stroke="#202020" stroke-width="0.4746" stroke-miterlimit="10" stroke-linecap="round" stroke-linejoin="round"/>
<path d="M96.1408 78.8754C101.208 76.3708 103.286 70.2323 100.781 65.1647C98.2766 60.0972 92.1381 58.0195 87.0706 60.5242C82.003 63.0289 79.9254 69.1674 82.4301 74.2349C84.9347 79.3025 91.0732 81.3801 96.1408 78.8754Z" stroke="#202020" stroke-width="0.4746" stroke-miterlimit="10" stroke-linecap="round" stroke-linejoin="round"/>
<path d="M72.8496 70.5442C72.8496 70.5442 76.464 64.9854 81.3668 70.5442" stroke="#202020" stroke-width="0.4746" stroke-miterlimit="10" stroke-linecap="round" stroke-linejoin="round"/>
<path d="M50.0536 67.8722C50.0536 67.8722 57.3182 46.0305 49.5049 33.1235L46.5584 53.7007L50.0536 67.8722Z" fill="#202020"/>
<path d="M53.0358 45.7203C53.0358 45.7203 56.0776 33.9585 67.0641 40.7102C73.625 44.7422 88.6672 52.317 104.974 41.6765C104.974 41.6765 95.8603 26.6819 74.7224 26.6819C47.1191 26.67 53.0358 45.7203 53.0358 45.7203Z" fill="#202020"/>
</g>
</svg>
