<svg width="22" height="23" viewBox="0 0 22 23" fill="none" xmlns="http://www.w3.org/2000/svg">
<path fill-rule="evenodd" clip-rule="evenodd" d="M10.573 0C16.4028 0 21.1449 4.74205 21.1449 10.5719C21.1449 13.3224 20.0894 15.831 18.362 17.7137L21.7609 21.1055C22.079 21.4236 22.0801 21.9382 21.762 22.2563C21.6035 22.4169 21.3939 22.4962 21.1855 22.4962C20.9781 22.4962 20.7697 22.4169 20.6101 22.2584L17.1702 18.8282C15.3607 20.2773 13.0663 21.1449 10.573 21.1449C4.74314 21.1449 0 16.4018 0 10.5719C0 4.74205 4.74314 0 10.573 0ZM10.573 1.62845C5.64096 1.62845 1.62845 5.63987 1.62845 10.5719C1.62845 15.5039 5.64096 19.5164 10.573 19.5164C15.5039 19.5164 19.5165 15.5039 19.5165 10.5719C19.5165 5.63987 15.5039 1.62845 10.573 1.62845Z" fill="#787486"/>
</svg>
